# Blender v2.91.0 OBJ File: 'mushroom low poly 2.blend'
# www.blender.org
mtllib mushroom low poly 2.mtl
o Cylinder
v 0.943009 -0.268591 -0.685136
v 0.875096 8.358095 -0.404170
v 1.151272 -0.268591 0.182343
v 1.046720 8.446930 0.315811
v 0.685136 -0.268591 0.943009
v 0.654486 8.481634 0.951228
v -0.182343 -0.268591 1.151272
v -0.072709 8.441025 1.129239
v -0.943009 -0.268591 0.685136
v -0.708567 8.351036 0.745242
v -1.151272 -0.268591 -0.182343
v -0.880342 8.264936 0.024320
v -0.685136 -0.268591 -0.943009
v -0.486982 8.231215 -0.610964
v 0.182343 -0.268591 -1.151272
v 0.240359 8.269085 -0.788055
v 1.349419 0.618263 -0.980411
v 1.469622 2.351586 -1.064763
v 1.276411 3.548859 -0.915178
v 0.994519 6.017778 -0.626169
v 1.012003 7.135554 -0.451854
v 1.199671 7.185596 0.351670
v 1.202724 6.027652 0.246527
v 1.564782 3.548859 0.285972
v 1.795773 2.351586 0.293749
v 1.647439 0.618263 0.260928
v 0.765182 7.205632 1.053182
v 0.733746 6.030750 1.009914
v 0.919350 3.548859 1.339222
v 1.065783 2.351586 1.484985
v 0.980411 0.618263 1.349419
v -0.037985 7.184393 1.247397
v -0.138319 6.026988 1.218649
v -0.281800 3.548859 1.627593
v -0.292728 2.351586 1.811135
v -0.260928 0.618263 1.647439
v -0.745036 7.134822 0.819457
v -0.904424 6.017860 0.750196
v -1.335050 3.548859 0.982161
v -1.483964 2.351586 1.081145
v -1.349419 0.618263 0.980411
v -0.940795 7.085496 0.014482
v -1.115668 6.008065 -0.123008
v -1.623421 3.548859 -0.218989
v -1.810114 2.351586 -0.277367
v -1.647439 0.618263 -0.260928
v -0.504935 7.064788 -0.694984
v -0.646045 6.004542 -0.889204
v -0.977989 3.548859 -1.272239
v -1.080124 2.351586 -1.468602
v -0.980411 0.618263 -1.349419
v 0.306321 7.085312 -0.887750
v 0.228885 6.007951 -1.097537
v 0.223161 3.548859 -1.560610
v 0.278387 2.351586 -1.794752
v 0.260928 0.618263 -1.647439
v 1.322924 9.682028 -0.969669
v 1.620608 9.916023 0.307086
v 0.919320 10.012947 1.435037
v -0.370189 9.916094 1.753620
v -1.493779 9.682011 1.076344
v -1.792698 9.447438 -0.201783
v -1.089932 9.350496 -1.330333
v 0.200603 9.447898 -1.647554
v 5.874582 9.338093 -3.741557
v 7.072463 10.194824 1.371295
v 4.274073 10.549695 5.882753
v -0.881328 10.194824 7.150066
v -5.373775 9.338092 4.430857
v -6.571654 8.481359 -0.681995
v -3.773266 8.126490 -5.193452
v 1.382134 8.481359 -6.460764
v 5.346343 10.065351 -3.522406
v 6.448109 10.853539 1.181397
v 3.873662 11.179996 5.331636
v -0.868997 10.853539 6.497589
v -5.002116 10.065351 3.996193
v -6.104506 9.277085 -0.707704
v -3.529956 8.950552 -4.858564
v 1.213326 9.277085 -6.024423
v -0.239460 14.104149 -0.517033
v -0.220475 14.117725 -0.436002
v -0.264826 14.123350 -0.364502
v -0.346532 14.117725 -0.344416
v -0.417731 14.104149 -0.387512
v -0.436716 14.090570 -0.468544
v -0.392365 14.084946 -0.540044
v -0.310659 14.090570 -0.560129
v -0.044488 13.251778 -1.758418
v 0.223085 12.236286 -2.904345
v 0.616801 11.169445 -4.148881
v 0.970155 10.249127 -5.297320
v -3.119264 9.957141 -4.293295
v -2.464345 10.908432 -3.391878
v -1.755154 12.068995 -2.415761
v -1.090011 13.176491 -1.500271
v -1.657815 13.252131 -0.584601
v -2.835013 12.231119 -0.690664
v -4.142208 11.152321 -0.703422
v -5.338945 10.240049 -0.715799
v -4.388171 10.935089 3.336474
v -3.433615 11.765240 2.334257
v -2.384343 12.631464 1.259834
v -1.415318 13.434669 0.452164
v -0.504546 13.617182 1.002737
v -0.666760 13.032583 2.293679
v -0.757783 12.369125 3.944107
v -0.825690 11.621483 5.491067
v 3.260756 11.899157 4.488043
v 2.317492 12.605120 3.189752
v 1.312002 13.195919 1.805814
v 0.540902 13.693472 0.744487
v 1.108744 13.617456 -0.171131
v 2.392427 13.028723 0.081496
v 3.994595 12.353119 0.510978
v 5.479451 11.615055 0.914282
v 4.531637 10.934423 -3.139011
v 3.291852 11.765273 -2.529376
v 1.941227 12.632341 -1.869730
v 0.866295 13.434187 -1.207830
vt 0.589623 0.581063
vt 0.602788 0.580111
vt 0.602794 0.550914
vt 0.589203 0.548527
vt 0.608192 0.530008
vt 0.595004 0.525463
vt 0.742640 0.623007
vt 0.755381 0.617577
vt 0.750992 0.596641
vt 0.738039 0.599843
vt 0.750990 0.567339
vt 0.738531 0.567255
vt 0.755381 0.546847
vt 0.743872 0.544255
vt 0.447410 0.586772
vt 0.458866 0.584236
vt 0.454491 0.555099
vt 0.442649 0.554287
vt 0.721450 0.245844
vt 0.721501 0.268847
vt 0.747406 0.281514
vt 0.747405 0.240676
vt 0.459281 0.533247
vt 0.447849 0.530095
vt 0.596081 0.604105
vt 0.608192 0.600534
vt 0.290674 0.585895
vt 0.290674 0.550718
vt 0.265801 0.525845
vt 0.230625 0.525846
vt 0.205752 0.550719
vt 0.205752 0.585896
vt 0.230625 0.610769
vt 0.265801 0.610768
vt 0.273428 0.629085
vt 0.309021 0.593492
vt 0.533959 0.635484
vt 0.550068 0.640499
vt 0.538350 0.601851
vt 0.523251 0.600169
vt 0.562378 0.631668
vt 0.552017 0.597496
vt 0.586364 0.613151
vt 0.578929 0.588224
vt 0.223093 0.629086
vt 0.371521 0.551999
vt 0.385052 0.548138
vt 0.393406 0.507563
vt 0.379155 0.514924
vt 0.399284 0.550668
vt 0.406671 0.514793
vt 0.429344 0.552512
vt 0.434776 0.526431
vt 0.187500 0.593493
vt 0.378551 0.601842
vt 0.392746 0.602685
vt 0.406086 0.598897
vt 0.434324 0.587595
vt 0.187500 0.543157
vt 0.672252 0.548187
vt 0.687682 0.546212
vt 0.697514 0.507563
vt 0.681236 0.512871
vt 0.411979 0.639253
vt 0.423092 0.631229
vt 0.446791 0.611051
vt 0.459281 0.608321
vt 0.223093 0.507563
vt 0.670692 0.598499
vt 0.685975 0.601273
vt 0.699044 0.598265
vt 0.700554 0.549582
vt 0.726755 0.595526
vt 0.727757 0.560133
vt 0.273428 0.507563
vt 0.677469 0.634336
vt 0.693391 0.640492
vt 0.705602 0.632941
vt 0.731547 0.620716
vt 0.309021 0.543155
vt 0.521781 0.549854
vt 0.536741 0.546786
vt 0.546184 0.507562
vt 0.530409 0.514013
vt 0.550594 0.548810
vt 0.558944 0.514130
vt 0.578003 0.552860
vt 0.584097 0.527733
vt 0.666519 0.246237
vt 0.682600 0.229874
vt 0.678672 0.212625
vt 0.650162 0.241820
vt 0.705432 0.285242
vt 0.682662 0.285402
vt 0.678563 0.311204
vt 0.718889 0.310757
vt 0.705341 0.229717
vt 0.718948 0.212151
vt 0.666541 0.269242
vt 0.650115 0.282637
vt 0.768261 0.449869
vt 0.882341 0.333292
vt 0.492848 0.337462
vt 0.606928 0.451597
vt 0.606928 0.057748
vt 0.492848 0.174325
vt 0.882341 0.170155
vt 0.768261 0.056020
vt 0.080615 0.326470
vt 0.179894 0.425759
vt 0.188509 0.413224
vt 0.097179 0.321875
vt 0.320295 0.424306
vt 0.317683 0.411896
vt 0.419574 0.322962
vt 0.419574 0.181093
vt 0.409023 0.188129
vt 0.409027 0.318657
vt 0.320295 0.081803
vt 0.179894 0.083256
vt 0.188511 0.098130
vt 0.317678 0.096786
vt 0.080615 0.184600
vt 0.097182 0.191363
vt 0.284746 0.296716
vt 0.304865 0.276138
vt 0.275202 0.264030
vt 0.273629 0.265636
vt 0.304860 0.247346
vt 0.284734 0.227205
vt 0.273629 0.260208
vt 0.275202 0.261781
vt 0.256276 0.227514
vt 0.236160 0.248093
vt 0.269830 0.261837
vt 0.271404 0.260231
vt 0.236164 0.276885
vt 0.256288 0.297025
vt 0.271404 0.265659
vt 0.269830 0.264085
vt 0.122595 0.314164
vt 0.122638 0.201754
vt 0.161640 0.302274
vt 0.161975 0.217811
vt 0.203738 0.289335
vt 0.203971 0.234954
vt 0.201352 0.121457
vt 0.312668 0.120267
vt 0.221229 0.157398
vt 0.304756 0.156326
vt 0.242067 0.196027
vt 0.295695 0.195353
vt 0.391390 0.198944
vt 0.391377 0.311452
vt 0.363711 0.215377
vt 0.363491 0.300069
vt 0.333455 0.233331
vt 0.333243 0.287722
vt 0.312604 0.391811
vt 0.201259 0.392903
vt 0.304132 0.360621
vt 0.220490 0.361464
vt 0.295167 0.326657
vt 0.241518 0.327322
vn 0.9646 0.1137 -0.2379
vn 0.8469 0.1162 0.5189
vn 0.2315 0.0974 0.9679
vn -0.5213 0.0666 0.8508
vn -0.9721 0.0455 0.2301
vn -0.8492 0.0494 -0.5257
vn -0.1549 -0.5885 -0.7935
vn -0.2357 0.0710 -0.9692
vn 0.5121 0.0955 -0.8536
vn 0.0000 -1.0000 0.0000
vn 0.4629 -0.4637 -0.7554
vn 0.5209 -0.0775 -0.8501
vn 0.5132 0.1875 -0.8375
vn 0.5161 0.1574 -0.8419
vn 0.5170 0.1258 -0.8467
vn -0.2068 -0.4637 -0.8615
vn -0.2327 -0.0800 -0.9693
vn -0.2298 0.1766 -0.9571
vn -0.2291 0.1804 -0.9565
vn -0.2293 0.2033 -0.9519
vn -0.7554 -0.4637 -0.4629
vn -0.8496 -0.0847 -0.5206
vn -0.8421 0.1565 -0.5161
vn -0.8364 0.1929 -0.5130
vn -0.8331 0.2030 -0.5145
vn -0.8615 -0.4637 0.2068
vn -0.9685 -0.0887 0.2325
vn -0.9629 0.1389 0.2312
vn -0.9550 0.1882 0.2291
vn -0.9652 0.1254 0.2297
vn -0.4629 -0.4637 0.7554
vn -0.5204 -0.0897 0.8492
vn -0.5178 0.1343 0.8449
vn -0.5153 0.1687 0.8403
vn -0.5203 0.0226 0.8537
vn 0.2068 -0.4637 0.8615
vn 0.2326 -0.0872 0.9687
vn 0.2310 0.1454 0.9620
vn 0.2304 0.1452 0.9622
vn 0.2343 -0.0432 0.9712
vn 0.7554 -0.4637 0.4629
vn 0.8497 -0.0826 0.5207
vn 0.8409 0.1656 0.5153
vn 0.8451 0.1318 0.5182
vn 0.8500 -0.0437 0.5249
vn 0.8615 -0.4637 -0.2068
vn 0.9694 -0.0785 -0.2327
vn 0.9560 0.1829 -0.2295
vn 0.9632 0.1370 -0.2313
vn 0.9728 0.0221 -0.2305
vn 0.7989 -0.3054 0.5182
vn -0.7916 -0.5461 0.2740
vn 0.5158 -0.4859 -0.7056
vn 0.9168 -0.3675 -0.1561
vn 0.2468 -0.3328 0.9101
vn -0.6909 -0.6126 -0.3840
vn -0.4065 -0.4311 0.8055
vn 0.1753 -0.9667 0.1863
vn 0.1504 -0.9863 0.0681
vn 0.0304 -0.9947 0.0986
vn 0.1227 -0.9671 0.2229
vn 0.1880 -0.9745 0.1224
vn 0.0840 -0.9948 0.0581
vn 0.0215 -0.9863 0.1633
vn 0.0601 -0.9750 0.2138
vn 0.7361 0.6180 -0.2760
vn 0.3741 0.5058 -0.7773
vn -0.7534 0.4261 -0.5008
vn -0.4900 0.6180 0.6148
vn 0.6326 0.6970 0.3376
vn -0.2435 0.4261 -0.8713
vn -0.8549 0.5058 0.1156
vn 0.1256 0.6970 0.7060
vn -0.2020 0.7806 -0.5915
vn -0.5649 0.8251 -0.0126
vn 0.0184 0.9366 0.3500
vn 0.3844 0.8896 -0.2466
vn 0.1624 0.8251 -0.5411
vn -0.5005 0.7805 -0.3746
vn -0.3528 0.8898 0.2896
vn 0.3273 0.9366 0.1255
vn -0.1024 0.9847 -0.1410
vn 0.5462 0.7907 0.2764
vn 0.4081 0.8955 0.1775
vn 0.3556 0.9249 0.1346
vn 0.3825 0.9109 0.1549
vn -0.4558 0.7181 0.5260
vn -0.3942 0.8438 0.3641
vn -0.3905 0.8628 0.3210
vn -0.3978 0.8492 0.3471
vn -0.6916 0.5466 -0.4721
vn -0.5442 0.7372 -0.4005
vn -0.5728 0.7024 -0.4225
vn -0.5754 0.7006 -0.4221
vn 0.3179 0.6169 -0.7200
vn 0.2001 0.7788 -0.5945
vn 0.1925 0.7712 -0.6068
vn 0.2032 0.7619 -0.6150
vn 0.6400 0.7192 -0.2704
vn 0.4670 0.8452 -0.2598
vn 0.4294 0.8621 -0.2692
vn 0.4538 0.8492 -0.2701
vn 0.0948 0.7900 0.6058
vn 0.0446 0.8951 0.4436
vn 0.0195 0.9260 0.3769
vn 0.0293 0.9109 0.4115
vn -0.7825 0.6177 0.0788
vn -0.6284 0.7779 0.0036
vn -0.6387 0.7695 -0.0079
vn -0.6473 0.7622 0.0015
vn -0.2358 0.5453 -0.8044
vn -0.2143 0.7368 -0.6412
vn -0.2255 0.7037 -0.6738
vn -0.2236 0.7002 -0.6780
usemtl Material.001
s off
f 21/1/1 2/2/1 4/3/1 22/4/1
f 22/4/2 4/3/2 6/5/2 27/6/2
f 27/7/3 6/8/3 8/9/3 32/10/3
f 32/10/4 8/9/4 10/11/4 37/12/4
f 37/12/5 10/11/5 12/13/5 42/14/5
f 42/15/6 12/16/6 14/17/6 47/18/6
f 16/19/7 14/20/7 63/21/7 64/22/7
f 47/18/8 14/17/8 16/23/8 52/24/8
f 52/25/9 16/26/9 2/2/9 21/1/9
f 1/27/10 3/28/10 5/29/10 7/30/10 9/31/10 11/32/10 13/33/10 15/34/10
f 15/34/11 56/35/11 17/36/11 1/27/11
f 56/37/12 55/38/12 18/39/12 17/40/12
f 55/38/13 54/41/13 19/42/13 18/39/13
f 54/41/14 53/43/14 20/44/14 19/42/14
f 53/43/15 52/25/15 21/1/15 20/44/15
f 13/33/16 51/45/16 56/35/16 15/34/16
f 51/46/17 50/47/17 55/48/17 56/49/17
f 50/47/18 49/50/18 54/51/18 55/48/18
f 49/50/19 48/52/19 53/53/19 54/51/19
f 48/52/20 47/18/20 52/24/20 53/53/20
f 11/32/21 46/54/21 51/45/21 13/33/21
f 46/55/22 45/56/22 50/47/22 51/46/22
f 45/56/23 44/57/23 49/50/23 50/47/23
f 44/57/24 43/58/24 48/52/24 49/50/24
f 43/58/25 42/15/25 47/18/25 48/52/25
f 9/31/26 41/59/26 46/54/26 11/32/26
f 41/60/27 40/61/27 45/62/27 46/63/27
f 40/64/28 39/65/28 44/57/28 45/56/28
f 39/65/29 38/66/29 43/58/29 44/57/29
f 38/66/30 37/67/30 42/15/30 43/58/30
f 7/30/31 36/68/31 41/59/31 9/31/31
f 36/69/32 35/70/32 40/61/32 41/60/32
f 35/70/33 34/71/33 39/72/33 40/61/33
f 34/71/34 33/73/34 38/74/34 39/72/34
f 33/73/35 32/10/35 37/12/35 38/74/35
f 5/29/36 31/75/36 36/68/36 7/30/36
f 31/76/37 30/77/37 35/70/37 36/69/37
f 30/77/38 29/78/38 34/71/38 35/70/38
f 29/78/39 28/79/39 33/73/39 34/71/39
f 28/79/40 27/7/40 32/10/40 33/73/40
f 3/28/41 26/80/41 31/75/41 5/29/41
f 26/81/42 25/82/42 30/83/42 31/84/42
f 25/82/43 24/85/43 29/86/43 30/83/43
f 24/85/44 23/87/44 28/88/44 29/86/44
f 23/87/45 22/4/45 27/6/45 28/88/45
f 1/27/46 17/36/46 26/80/46 3/28/46
f 17/40/47 18/39/47 25/82/47 26/81/47
f 18/39/48 19/42/48 24/85/48 25/82/48
f 19/42/49 20/44/49 23/87/49 24/85/49
f 20/44/50 21/1/50 22/4/50 23/87/50
f 6/89/51 4/90/51 58/91/51 59/92/51
f 12/93/52 10/94/52 61/95/52 62/96/52
f 2/97/53 16/19/53 64/22/53 57/98/53
f 4/90/54 2/97/54 57/98/54 58/91/54
f 8/99/55 6/89/55 59/92/55 60/100/55
f 14/20/56 12/93/56 62/96/56 63/21/56
f 10/94/57 8/99/57 60/100/57 61/95/57
f 63/21/58 62/96/58 70/101/58 71/102/58
f 61/95/59 60/100/59 68/103/59 69/104/59
f 59/92/60 58/91/60 66/105/60 67/106/60
f 64/22/61 63/21/61 71/102/61 72/107/61
f 62/96/62 61/95/62 69/104/62 70/101/62
f 60/100/63 59/92/63 67/106/63 68/103/63
f 58/91/64 57/98/64 65/108/64 66/105/64
f 57/98/65 64/22/65 72/107/65 65/108/65
f 66/109/66 65/110/66 73/111/66 74/112/66
f 65/110/67 72/113/67 80/114/67 73/111/67
f 71/115/68 70/116/68 78/117/68 79/118/68
f 69/119/69 68/120/69 76/121/69 77/122/69
f 67/123/70 66/109/70 74/112/70 75/124/70
f 72/113/71 71/115/71 79/118/71 80/114/71
f 70/116/72 69/119/72 77/122/72 78/117/72
f 68/120/73 67/123/73 75/124/73 76/121/73
f 89/125/74 96/126/74 87/127/74 88/128/74
f 97/129/75 104/130/75 85/131/75 86/132/75
f 105/133/76 112/134/76 83/135/76 84/136/76
f 113/137/77 120/138/77 81/139/77 82/140/77
f 120/138/78 89/125/78 88/128/78 81/139/78
f 96/126/79 97/129/79 86/132/79 87/127/79
f 104/130/80 105/133/80 84/136/80 85/131/80
f 112/134/81 113/137/81 82/140/81 83/135/81
f 82/140/82 81/139/82 88/128/82 87/127/82 86/132/82 85/131/82 84/136/82 83/135/82
f 75/124/83 74/112/83 116/141/83 109/142/83
f 109/142/84 116/141/84 115/143/84 110/144/84
f 110/144/85 115/143/85 114/145/85 111/146/85
f 111/146/86 114/145/86 113/137/86 112/134/86
f 77/122/87 76/121/87 108/147/87 101/148/87
f 101/148/88 108/147/88 107/149/88 102/150/88
f 102/150/89 107/149/89 106/151/89 103/152/89
f 103/152/90 106/151/90 105/133/90 104/130/90
f 79/118/91 78/117/91 100/153/91 93/154/91
f 93/154/92 100/153/92 99/155/92 94/156/92
f 94/156/93 99/155/93 98/157/93 95/158/93
f 95/158/94 98/157/94 97/129/94 96/126/94
f 73/111/95 80/114/95 92/159/95 117/160/95
f 117/160/96 92/159/96 91/161/96 118/162/96
f 118/162/97 91/161/97 90/163/97 119/164/97
f 119/164/98 90/163/98 89/125/98 120/138/98
f 74/112/99 73/111/99 117/160/99 116/141/99
f 116/141/100 117/160/100 118/162/100 115/143/100
f 115/143/101 118/162/101 119/164/101 114/145/101
f 114/145/102 119/164/102 120/138/102 113/137/102
f 76/121/103 75/124/103 109/142/103 108/147/103
f 108/147/104 109/142/104 110/144/104 107/149/104
f 107/149/105 110/144/105 111/146/105 106/151/105
f 106/151/106 111/146/106 112/134/106 105/133/106
f 78/117/107 77/122/107 101/148/107 100/153/107
f 100/153/108 101/148/108 102/150/108 99/155/108
f 99/155/109 102/150/109 103/152/109 98/157/109
f 98/157/110 103/152/110 104/130/110 97/129/110
f 80/114/111 79/118/111 93/154/111 92/159/111
f 92/159/112 93/154/112 94/156/112 91/161/112
f 91/161/113 94/156/113 95/158/113 90/163/113
f 90/163/114 95/158/114 96/126/114 89/125/114
